# xmcd
#
# Track frame offsets: 
#        150
#        12862
#        23342
#        36595
#        52900
#        70137
#        98217
#        111770
#        123230
#        137130
#        154397
#        174755
#
# Disc length: 2507 seconds
#
# Revision: 0
# Processed by: cddbd v1.5.2PL0 Copyright (c) Steve Scherf et al.
# Submitted via: ExactAudioCopy v1.0b3
#
DISCID=9309c90c
DTITLE=Mojo Watson - Inheritance
DYEAR=2001
DGENRE=Blues
TTITLE0=I Love My Baby
TTITLE1=When You Put Me Down
TTITLE2=You Are Always Down Wrong
TTITLE3=Oh, How I've Suffered
TTITLE4=Please Help Me, Baby
TTITLE5=This Is a Cold, Cruel World
TTITLE6=Keep Away from Me, Judas
TTITLE7=Hey Little Girl
TTITLE8=I Kept on Trying
TTITLE9=She's One of the Finest
TTITLE10=We're Going Down
TTITLE11=Casey Jones' Last Ride
EXTD=
EXTT0=
EXTT1=
EXTT2=
EXTT3=
EXTT4=
EXTT5=
EXTT6=
EXTT7=
EXTT8=
EXTT9=
EXTT10=
EXTT11=
PLAYORDER=
